<?xml version="1.0" standalone="no"?><!DOCTYPE svg PUBLIC "-//W3C//DTD SVG 1.1//EN" "http://www.w3.org/Graphics/SVG/1.1/DTD/svg11.dtd"><svg t="1573011490299" class="icon" viewBox="0 0 1024 1024" version="1.1" xmlns="http://www.w3.org/2000/svg" p-id="5985" width="20" height="20" xmlns:xlink="http://www.w3.org/1999/xlink"><defs><style type="text/css"></style></defs><path d="M908 960H116c-28.67 0-52-23.33-52-52V372c0-28.67 23.33-52 52-52h792c28.67 0 52 23.33 52 52v536c0 28.67-23.33 52-52 52z m-780-64h768V384H128v512zM864 256H160c-17.6 0-32-14.4-32-32s14.4-32 32-32h704c17.6 0 32 14.4 32 32s-14.4 32-32 32zM736 128H288c-17.6 0-32-14.4-32-32s14.4-32 32-32h448c17.6 0 32 14.4 32 32s-14.4 32-32 32z" p-id="5986" fill="#BFCBD9"></path><path d="M478.75 771.84v-54.49h-65.04c-14.06 0-21.09-6.43-21.09-19.34 1.15-10.55 8.18-16.97 21.09-19.34h65.04v-29.88h-65.04c-14.06 0-21.09-6.43-21.09-19.34 1.15-10.55 8.18-16.97 21.09-19.34h36.91l-56.25-79.1c-5.88-4.67-8.21-11.12-7.03-19.34 1.15-19.91 12.3-31.04 33.4-33.4 10.55 1.18 19.34 5.88 26.37 14.06l65.04 93.16 65.04-93.16c5.85-8.18 14.64-12.88 26.37-14.06 19.91 2.36 31.04 13.49 33.4 33.4 0 8.21-2.36 14.67-7.03 19.34l-56.25 79.1h36.91c11.7 2.36 18.73 8.79 21.09 19.34-1.18 12.91-8.21 19.34-21.09 19.34h-65.04v29.88h65.04c11.7 2.36 18.73 8.79 21.09 19.34-1.18 12.91-8.21 19.34-21.09 19.34h-65.04v54.49c-1.18 19.94-12.3 29.88-33.4 29.88-22.28 0-33.4-9.94-33.4-29.88z" p-id="5987" fill="#BFCBD9"></path></svg>