<?xml version="1.0" standalone="no"?><!DOCTYPE svg PUBLIC "-//W3C//DTD SVG 1.1//EN" "http://www.w3.org/Graphics/SVG/1.1/DTD/svg11.dtd"><svg t="1573012179963" class="icon" viewBox="0 0 1024 1024" version="1.1" xmlns="http://www.w3.org/2000/svg" p-id="16849" width="25" height="25" xmlns:xlink="http://www.w3.org/1999/xlink"><defs><style type="text/css"></style></defs><path d="M546.133333 413.9008v-38.126933a34.133333 34.133333 0 1 0-68.266666 0v38.126933c-12.526933 3.208533-24.3712 8.192-35.2256 14.609067l-26.965334-26.965334a34.133333 34.133333 0 1 0-48.264533 48.264534l26.965333 26.965333A135.714133 135.714133 0 0 0 379.767467 512h-38.126934a34.133333 34.133333 0 1 0 0 68.266667h38.126934c3.208533 12.526933 8.192 24.3712 14.609066 35.2256l-26.965333 26.965333a34.133333 34.133333 0 1 0 48.264533 48.264533l26.965334-26.965333c10.8544 6.417067 22.698667 11.400533 35.2256 14.609067v38.126933a34.133333 34.133333 0 1 0 68.266666 0v-38.126933c12.526933-3.208533 24.3712-8.192 35.2256-14.609067l26.965334 26.965333a34.133333 34.133333 0 1 0 48.264533-48.264533l-26.965333-26.965333c6.417067-10.8544 11.400533-22.698667 14.609066-35.2256h38.126934a34.133333 34.133333 0 1 0 0-68.266667h-38.126934a135.714133 135.714133 0 0 0-14.609066-35.2256l26.965333-26.965333a34.133333 34.133333 0 1 0-48.264533-48.264534l-26.965334 26.965334A135.714133 135.714133 0 0 0 546.133333 413.9008z m-341.333333 29.934933c0-37.751467 24.439467-86.528 54.749867-108.817066C259.549867 335.018667 477.866667 170.666667 512 170.666667s252.791467 164.590933 252.791467 164.590933c30.037333 22.186667 54.408533 70.724267 54.408533 108.544v307.029333A68.232533 68.232533 0 0 1 751.104 819.2H272.896A68.164267 68.164267 0 0 1 204.8 750.830933v-306.9952zM512 614.4a68.266667 68.266667 0 1 1 0-136.533333 68.266667 68.266667 0 0 1 0 136.533333z" fill="#BFCBD9" p-id="16850"></path></svg>