<?xml version="1.0" standalone="no"?><!DOCTYPE svg PUBLIC "-//W3C//DTD SVG 1.1//EN" "http://www.w3.org/Graphics/SVG/1.1/DTD/svg11.dtd"><svg t="1573013167045" class="icon" viewBox="0 0 1024 1024" version="1.1" xmlns="http://www.w3.org/2000/svg" p-id="21003" width="20" height="20" xmlns:xlink="http://www.w3.org/1999/xlink"><defs><style type="text/css"></style></defs><path d="M65.344 944.64l893.312 0 0 72.064-893.312 0 0-72.064Z" p-id="21004" fill="#BFCBD9"></path><path d="M838.016 40 185.984 40c-70.656 0-128 57.344-128 128l0 531.968c0 70.656 57.344 128 128 128l652.032 0c70.656 0 128-57.344 128-128L966.016 168C966.016 97.344 908.672 40 838.016 40zM832 486.656l-60.032 0 0 193.344L254.976 680 256 486.656 192 486.656 192 416l325.312-275.968L832 428.032 832 486.656z" p-id="21005" fill="#BFCBD9"></path><path d="M512 266.304 316.032 436.288 316.032 620.352 446.72 620.352 446.72 494.976 577.344 494.976 577.344 620.352 707.968 620.352 707.968 436.288Z" p-id="21006" fill="#BFCBD9"></path></svg>