<?xml version="1.0" standalone="no"?><!DOCTYPE svg PUBLIC "-//W3C//DTD SVG 1.1//EN" "http://www.w3.org/Graphics/SVG/1.1/DTD/svg11.dtd"><svg t="1573011425965" class="icon" viewBox="0 0 1024 1024" version="1.1" xmlns="http://www.w3.org/2000/svg" p-id="5400" width="20" height="20" xmlns:xlink="http://www.w3.org/1999/xlink"><defs><style type="text/css"></style></defs><path d="M739.556 56.889 284.444 56.889 0 398.222l512 568.889 512-568.889L739.556 56.889zM796.234 438.517l-9.711 0c-14.501 0-13.517 2.776-20.543 11.105-50.79 67.8-253.423 335.519-253.423 335.519-0.131-0.319-0.199-0.768-0.33-1.161l0 1.161c0 0-202.894-267.657-253.616-335.519-7.088-8.391-5.973-11.105-20.605-11.105l-9.779 0c-5.643 0-10.172-4.972-10.172-11.11L218.055 372.07c0-6.133 4.597-11.11 10.172-11.11l101.45 0c5.575 0 13.579 0.774 20.281 11.11l162.338 224.711 0 0.842c0.131-0.262 0.199-0.649 0.33-0.774l162.076-224.842c6.696-10.274 14.768-11.11 20.349-11.11l101.313 0c5.575 0 10.103 4.972 9.978 11.173l0 55.336C806.343 433.482 801.815 438.517 796.234 438.517z" p-id="5401" fill="#BFCBD9"></path></svg>