<?xml version="1.0" standalone="no"?><!DOCTYPE svg PUBLIC "-//W3C//DTD SVG 1.1//EN" "http://www.w3.org/Graphics/SVG/1.1/DTD/svg11.dtd"><svg t="1573011905410" class="icon" viewBox="0 0 1024 1024" version="1.1" xmlns="http://www.w3.org/2000/svg" p-id="13307" width="20" height="20" xmlns:xlink="http://www.w3.org/1999/xlink"><defs><style type="text/css"></style></defs><path d="M959.160734 587.134258a20.334208 20.334208 0 0 0-6.522293 4.476083l-17.264893 18.096166a28.391158 28.391158 0 0 1-32.419633 4.987636l-34.146122-14.579244a30.629199 30.629199 0 0 1-19.438991-27.495941v-25.449731a20.909704 20.909704 0 0 0-20.462095-21.16548h-40.668416c-11.254153 0-20.462096 9.527663-20.462095 21.16548v25.449731a30.565255 30.565255 0 0 1-19.502935 27.495941l-34.082178 14.579244a28.26327 28.26327 0 0 1-32.355689-4.987636l-17.392781-18.032222a19.886599 19.886599 0 0 0-28.774822 0l-28.90271 29.989759a21.740977 21.740977 0 0 0 0 29.989759l17.264893 17.968278c7.993006 8.312726 10.231048 23.403522 4.859747 33.698513l-14.06769 35.488948a29.670039 29.670039 0 0 1-26.408892 20.270263h-24.490571a20.84576 20.84576 0 0 0-20.398152 21.101536v42.394905c0 11.701761 9.207943 21.229424 20.462096 21.229424h24.426627c11.254153 0 23.019858 9.143999 26.408892 20.270264l14.06769 35.488947a31.332584 31.332584 0 0 1-4.795803 33.698514l-17.392781 17.968277a21.932809 21.932809 0 0 0 0 30.053703l28.90271 29.925815c2.557762 2.68565 5.627076 4.476083 8.888222 5.435244V1023.104783H110.815037A46.295491 46.295491 0 0 1 63.944049 976.93718V319.720245h895.216685v267.414013z m48.469589 193.750468c8.504559 0 15.47446 7.289622 15.47446 16.177844v32.355689c0 8.888223-7.033845 16.1139-15.47446 16.1139h-18.671662a22.636193 22.636193 0 0 0-20.142375 15.410516l-10.678656 27.048333a23.85113 23.85113 0 0 0 3.580866 25.641563l13.236418 13.747971a16.625453 16.625453 0 0 1 0 22.89197l-21.996752 22.828025a15.218684 15.218684 0 0 1-21.996753 0l-13.10853-13.74797a21.613089 21.613089 0 0 0-24.746347-3.772699l-26.025228 11.126264a23.339578 23.339578 0 0 0-14.835019 20.973648v19.311103c0 8.824279-7.033845 16.1139-15.538404 16.1139H805.695017a15.922068 15.922068 0 0 1-15.602348-16.1139v-19.311103a23.275634 23.275634 0 0 0-14.835019-20.973648l-26.025228-11.126264a21.4852 21.4852 0 0 0-24.618459 3.772699l-13.236418 13.74797a15.15474 15.15474 0 0 1-21.996753 0l-21.996753-22.828025a16.689397 16.689397 0 0 1 0-22.89197l13.236418-13.747971a23.915074 23.915074 0 0 0 3.644811-25.641563l-10.7426-27.048333a22.572249 22.572249 0 0 0-20.078432-15.346572h-18.671662a15.922068 15.922068 0 0 1-15.538404-16.241788v-32.291745c0-8.888223 7.033845-16.1139 15.538404-16.1139h18.671662a22.572249 22.572249 0 0 0 20.142376-15.410516l10.678656-27.048333a23.723242 23.723242 0 0 0-3.644811-25.641563l-13.172474-13.747971a16.625453 16.625453 0 0 1 0-22.828025l21.932809-22.828026a15.15474 15.15474 0 0 1 21.996753 0l13.236418 13.684027a21.549144 21.549144 0 0 0 24.682403 3.836643l25.961284-11.126265a23.275634 23.275634 0 0 0 14.835019-20.973648v-19.375047c0-8.824279 7.033845-16.1139 15.602348-16.1139h31.012864c8.504559 0 15.538404 7.289622 15.538404 16.1139v19.375047c0 8.952167 6.714125 18.351942 14.835019 20.973648l26.025228 11.126265c7.481454 4.156363 18.607718 2.493818 24.682403-3.836643l13.172474-13.684027a15.218684 15.218684 0 0 1 21.996753 0l21.996752 22.828026a16.625453 16.625453 0 0 1 0 22.828025l-13.236418 13.747971a23.787186 23.787186 0 0 0-3.580866 25.577619l10.678656 27.112277c2.557762 8.440614 11.573873 15.346572 20.142375 15.346572h18.671662z m-186.396902 113.053078c42.842513 0 77.628075-36.128388 77.628075-80.697389 0-44.569002-34.721619-80.761334-77.628075-80.761334-42.906457 0-77.692019 36.192332-77.69202 80.761334s34.785563 80.69739 77.69202 80.697389zM191.832147 472.546522c0 13.42825 11.254153 24.938179 25.193955 24.938179h333.276383A24.938179 24.938179 0 0 0 575.496441 472.546522C575.496441 459.118272 564.242288 447.608343 550.302485 447.608343H217.026102A24.938179 24.938179 0 0 0 191.832147 472.546522z m0 191.832147c0 13.42825 11.254153 24.938179 25.066067 24.938179h269.58811A24.618459 24.618459 0 0 0 511.552392 664.378669c0-13.42825-11.254153-24.938179-25.066068-24.938179H216.898214a24.618459 24.618459 0 0 0-25.066067 24.938179z m0 191.832147c0 13.42825 11.254153 24.938179 25.066067 24.938179h141.700013A25.130011 25.130011 0 0 0 383.664294 856.210816c0-13.42825-11.254153-24.938179-25.066067-24.93818H216.898214a25.130011 25.130011 0 0 0-25.066067 24.93818zM592.505558 63.944049C614.50231 25.705508 655.746222 0 703.384539 0c47.446484 0 88.882228 25.57762 110.87898 63.944049h98.026227c25.89734 0 46.870988 20.909704 46.870988 46.934932V255.776196H63.944049V110.878981C63.944049 84.917697 84.342201 63.944049 110.815037 63.944049h98.026227C230.838017 25.705508 272.081928 0 319.720245 0c47.446484 0 88.882228 25.57762 110.878981 63.944049h161.906332zM255.776196 127.888098c0 35.552891 28.646934 63.944049 63.944049 63.944049 35.552891 0 63.944049-28.646934 63.944049-63.944049 0-35.552891-28.646934-63.944049-63.944049-63.944049-35.552891 0-63.944049 28.646934-63.944049 63.944049z m383.664294 0c0 35.552891 28.646934 63.944049 63.944049 63.944049 35.552891 0 63.944049-28.646934 63.944048-63.944049 0-35.552891-28.646934-63.944049-63.944048-63.944049-35.552891 0-63.944049 28.646934-63.944049 63.944049z" fill="#BFCBD9" p-id="13308"></path></svg>