<?xml version="1.0" standalone="no"?><!DOCTYPE svg PUBLIC "-//W3C//DTD SVG 1.1//EN" "http://www.w3.org/Graphics/SVG/1.1/DTD/svg11.dtd"><svg t="1573011378143" class="icon" viewBox="0 0 1024 1024" version="1.1" xmlns="http://www.w3.org/2000/svg" p-id="4965" width="20" height="20" xmlns:xlink="http://www.w3.org/1999/xlink"><defs><style type="text/css"></style></defs><path d="M831.4368 289.28L558.08 131.4304a92.5696 92.5696 0 0 0-92.16 0L192.5632 289.28a92.16 92.16 0 0 0-46.08 79.7696v315.6992a92.16 92.16 0 0 0 46.08 79.7696L465.92 922.368a92.5184 92.5184 0 0 0 92.16 0l273.3568-157.8496a92.16 92.16 0 0 0 46.08-79.7696V369.0496a92.16 92.16 0 0 0-46.08-79.7696zM512 707.7888a180.8896 180.8896 0 1 1 180.8896-180.8896A181.0944 181.0944 0 0 1 512 707.7888z" fill="#BFCBD9" p-id="4966"></path><path d="M512 526.8992m-119.4496 0a119.4496 119.4496 0 1 0 238.8992 0 119.4496 119.4496 0 1 0-238.8992 0Z" fill="#BFCBD9" p-id="4967"></path></svg>